<svg width="119" height="47" viewBox="0 0 119 47" fill="none" xmlns="http://www.w3.org/2000/svg">
<path d="M7.10349 21.0138C7.90596 20.365 5.68801 12.6424 15.574 6.67702C25.4601 0.711632 32.2031 4.27104 33.1505 4.00972C34.0867 3.75741 38.4891 -11.8499 57.0018 -15.905C75.5144 -19.96 94.8184 -12.3546 99.3657 0.333162C103.523 11.9305 100.302 19.7432 100.781 20.2478C101.249 20.7525 110.199 20.5002 115.371 27.2225C120.542 33.9448 118.67 38.135 118.67 38.135L85.7237 46.3802H33.0056C33.0056 46.3802 -13.4376 36.486 -13.9057 34.7108C-14.3738 32.9356 -13.315 27.1684 -5.74725 23.6721C0.828581 20.6353 5.68801 22.1582 7.10349 21.0138Z" fill="#E4EAEE"/>
</svg>
