<svg width="119" height="29" viewBox="0 0 119 29" fill="none" xmlns="http://www.w3.org/2000/svg">
<path d="M20.4073 17.3558C20.4073 17.3558 2.8623 20.3639 -9.00115 12.8346C-16.1392 8.29521 -13.5375 0.939148 -13.5375 0.939148C-13.5375 0.939148 -8.42299 5.17777 1.90611 6.3263C12.2352 7.48395 23.8207 7.09199 23.8207 7.09199C23.8207 7.09199 26.7115 11.1392 37.5965 12.9987C51.2389 15.3231 58.4326 9.59871 58.4326 9.59871C58.4326 9.59871 62.1684 13.2631 75.3216 13.5183C88.4748 13.7735 95.8464 6.24427 97.0805 6.07108C97.7032 5.98904 101.328 8.68718 108.51 7.73918C115.348 6.83676 118.951 4.40297 118.951 4.40297C118.951 4.40297 119.94 10.4373 113.058 14.1564C107.688 17.055 98.3481 17.365 98.3481 17.365C98.3481 17.365 96.9249 21.8406 90.5095 25.0948C84.55 28.1302 74.2765 29.142 66.6714 27.2824C57.1206 24.9489 54.7524 21.3848 54.7524 21.3848C54.7524 21.3848 47.6365 24.8031 36.518 23.6454C26.011 22.5698 20.4073 17.3558 20.4073 17.3558Z" fill="#BACDD2"/>
</svg>
