<svg width="122" height="42" viewBox="0 0 122 42" fill="none" xmlns="http://www.w3.org/2000/svg">
<path d="M127.17 0.0604858C131.462 3.43572 128.426 11.1724 125.477 13.6975C119.668 18.6541 109.009 17.4978 104.728 16.7836C103.571 16.5881 103.385 16.6561 103.003 16.8347C102.664 16.9962 102.511 17.2512 102.14 17.8549C100.764 20.1674 97.2039 24.6479 89.6906 26.4503C81.8605 28.3292 74.4782 25.464 71.0274 23.7552C69.7169 23.109 69.6623 23.092 69.0726 23.1005C68.4719 23.109 67.8822 23.4491 67.1724 23.8827C64.0491 25.7956 56.918 29.1709 45.921 28.6777C35.1424 28.1931 28.9723 23.024 26.8537 20.3629C26.4496 19.8528 26.0128 19.4277 25.5104 19.3852C24.9316 19.3427 24.2873 19.8018 23.8068 20.1759C19.2202 23.6531 4.78321 24.6989 0 18.7731C4.87057 24.8519 12.3948 27.8616 20.1157 27.9381C21.1313 27.9466 22.1141 27.8956 23.097 27.8021C28.1314 36.0659 38.9318 41.7791 51.4577 41.7791C59.0147 41.7791 65.9384 39.6962 71.355 36.2359C75.4939 38.6249 80.6047 40.0532 86.1523 40.0532C97.5316 40.0532 107.109 34.1104 110.09 25.9912C111.969 26.4758 113.967 26.7478 116.053 26.7478C126.515 26.7478 135 20.1419 135 11.9971C134.978 7.66115 132.182 2.76408 127.17 0.0604858Z" fill="#B9CDD2"/>
</svg>
