<svg width="125" height="62" viewBox="0 0 125 62" fill="none" xmlns="http://www.w3.org/2000/svg">
<path d="M119.064 17.6125H119.053C119.053 17.5535 119.064 17.4945 119.064 17.4355C119.064 9.38294 110.621 2.84817 100.193 2.84817C98.851 2.84817 97.542 2.95779 96.2876 3.16858C92.5461 -3.86367 83.6124 -8.82166 73.1625 -8.82166C65.3196 -8.82166 58.3275 -6.02225 53.7462 -1.65449C50.7047 -2.85013 47.3411 -3.47414 43.9289 -3.4758C32.6391 -3.4758 23.3672 3.16858 22.2873 11.6764C10.0158 12.1823 0.165782 19.9566 0.0021614 29.6112C-0.172368 39.6621 10.2448 47.9254 23.2472 48.0519C24.2617 48.0603 25.2434 48.0097 26.2251 47.917C31.2537 56.1128 42.0418 61.7791 54.5534 61.7791C62.1017 61.7791 69.0174 59.7133 74.4278 56.2815C78.562 58.6508 83.667 60.0674 89.2083 60.0674C100.574 60.0674 110.141 54.1735 113.119 46.121C114.995 46.6016 116.991 46.8714 119.075 46.8714C129.524 46.8714 138 40.3198 138 32.242C137.989 24.1642 129.524 17.6125 119.064 17.6125Z" fill="#E3EBEE"/>
</svg>
