<svg width="54" height="30" viewBox="0 0 54 30" fill="none" xmlns="http://www.w3.org/2000/svg">
<path d="M23.3333 3.33333C23.3333 3.33333 23.3333 0 26.6667 0C30 0 30 3.33333 30 3.33333V6.66667C30 6.66667 30 10 26.6667 10C23.3333 10 23.3333 6.66667 23.3333 6.66667V3.33333ZM50 23.3333C50 23.3333 53.3333 23.3333 53.3333 26.6667C53.3333 30 50 30 50 30H46.6667C46.6667 30 43.3333 30 43.3333 26.6667C43.3333 23.3333 46.6667 23.3333 46.6667 23.3333H50ZM6.66667 23.3333C6.66667 23.3333 10 23.3333 10 26.6667C10 30 6.66667 30 6.66667 30H3.33333C3.33333 30 0 30 0 26.6667C0 23.3333 3.33333 23.3333 3.33333 23.3333H6.66667ZM13.12 10.0717C13.12 10.0717 15.4767 12.4283 13.12 14.785C10.7633 17.1417 8.40667 14.785 8.40667 14.785L6.04833 12.43C6.04833 12.43 3.69167 10.0733 6.04833 7.715C8.40667 5.35833 10.7633 7.715 10.7633 7.715L13.12 10.0717ZM44.9283 14.785C44.9283 14.785 42.5717 17.1417 40.215 14.785C37.8583 12.4283 40.215 10.0717 40.215 10.0717L42.5717 7.715C42.5717 7.715 44.9283 5.35833 47.285 7.715C49.6417 10.0717 47.285 12.4283 47.285 12.4283L44.9283 14.785Z" fill="#FFAC33"/>
</svg>
