<svg width="21" height="20" viewBox="0 0 21 20" fill="none" xmlns="http://www.w3.org/2000/svg">
<g clip-path="url(#clip0_1169_1182)">
<path fill-rule="evenodd" clip-rule="evenodd" d="M20.1 10.2273C20.1 9.51825 20.0364 8.83643 19.9182 8.18188H10.5V12.0501H15.8818C15.65 13.3001 14.9455 14.3592 13.8864 15.0682V17.5773H17.1182C19.0091 15.8364 20.1 13.2728 20.1 10.2273Z" fill="#4285F4"/>
<path fill-rule="evenodd" clip-rule="evenodd" d="M10.5 20C13.2 20 15.4636 19.1046 17.1182 17.5773L13.8864 15.0682C12.9909 15.6682 11.8454 16.0228 10.5 16.0228C7.89545 16.0228 5.6909 14.2637 4.90454 11.9H1.56363V14.4909C3.20908 17.7591 6.5909 20 10.5 20Z" fill="#34A853"/>
<path fill-rule="evenodd" clip-rule="evenodd" d="M4.90455 11.9001C4.70455 11.3001 4.59091 10.6592 4.59091 10.0001C4.59091 9.34097 4.70455 8.70006 4.90455 8.10006V5.50916H1.56364C0.886364 6.85916 0.5 8.38643 0.5 10.0001C0.5 11.6137 0.886364 13.141 1.56364 14.491L4.90455 11.9001Z" fill="#FBBC05"/>
<path fill-rule="evenodd" clip-rule="evenodd" d="M10.5 3.97727C11.9682 3.97727 13.2864 4.48182 14.3227 5.47273L17.1909 2.60455C15.4591 0.990909 13.1954 0 10.5 0C6.5909 0 3.20908 2.24091 1.56363 5.50909L4.90454 8.1C5.6909 5.73636 7.89545 3.97727 10.5 3.97727Z" fill="#EA4335"/>
</g>
<defs>
<clipPath id="clip0_1169_1182">
<rect width="20" height="20" fill="white" transform="translate(0.5)"/>
</clipPath>
</defs>
</svg>
