<svg width="221" height="195" viewBox="0 0 221 195" fill="none" xmlns="http://www.w3.org/2000/svg">
<g clip-path="url(#clip0_55_634)">
<path d="M110.5 195C171.527 195 221 192.457 221 189.321C221 186.184 171.527 183.641 110.5 183.641C49.4725 183.641 0 186.184 0 189.321C0 192.457 49.4725 195 110.5 195Z" fill="#E6E6E6"/>
<path d="M125.266 44.9899H124.077V16.4931C124.077 12.1188 122.091 7.92375 118.557 4.8307C115.022 1.73766 110.228 0 105.229 0H36.2333C31.2344 0 26.4403 1.73766 22.9055 4.8307C19.3708 7.92375 17.385 12.1188 17.385 16.4931V172.828C17.385 177.202 19.3708 181.397 22.9055 184.49C26.4403 187.583 31.2344 189.321 36.2333 189.321H105.229C110.228 189.321 115.022 187.583 118.557 184.49C122.091 181.397 124.077 177.202 124.077 172.828V65.2742H125.266V44.9899Z" fill="#3F3D56"/>
<path d="M120.065 16.6083V172.713C120.065 175.979 118.582 179.112 115.942 181.422C113.303 183.732 109.722 185.03 105.989 185.03H36.6626C32.9295 185.03 29.3494 183.732 26.7097 181.422C24.07 179.112 22.587 175.98 22.5868 172.713V16.6083C22.5869 13.3416 24.0699 10.2087 26.7097 7.89874C29.3495 5.58882 32.9298 4.29109 36.663 4.29102H45.0733C44.66 5.17962 44.5026 6.14348 44.6149 7.09782C44.7272 8.05215 45.1058 8.96771 45.7174 9.76396C46.329 10.5602 47.1549 11.2127 48.1223 11.6641C49.0898 12.1155 50.1691 12.352 51.2655 12.3527H90.7924C91.8888 12.352 92.9682 12.1156 93.9357 11.6642C94.9032 11.2128 95.7291 10.5603 96.3407 9.76407C96.9524 8.96782 97.331 8.05225 97.4433 7.09789C97.5557 6.14353 97.3983 5.17964 96.9849 4.29102H105.989C109.722 4.29109 113.303 5.58882 115.942 7.89874C118.582 10.2087 120.065 13.3416 120.065 16.6083Z" fill="white"/>
<path d="M54.6126 134.799H53.1545L53.6413 109.879H54.1281L54.6126 134.799Z" fill="#E6E6E6"/>
<path d="M55.8273 94.1895L58.1808 91.007C57.4828 89.3201 56.6767 87.6689 55.7663 86.0614L54.2446 87.1371L55.4496 85.5077C54.3011 83.5298 53.3976 82.2834 53.3976 82.2834C53.3976 82.2834 48.6784 88.7912 47.1009 95.6826L50.1209 99.7667L46.7783 97.4038C46.6593 98.2065 46.598 99.0149 46.595 99.8244C46.595 107.985 49.6409 114.601 53.3983 114.601C57.1556 114.601 60.2016 107.985 60.2016 99.8244C60.2016 97.2945 59.5473 94.6476 58.6439 92.1989L55.8273 94.1895Z" fill="#CCCCCC"/>
<path d="M92.5684 134.799H91.1104L91.5971 109.879H92.0839L92.5684 134.799Z" fill="#E6E6E6"/>
<path d="M93.7832 94.1895L96.1366 91.007C95.4387 89.3201 94.6326 87.6689 93.7222 86.0614L92.2005 87.1371L93.4055 85.5077C92.257 83.5298 91.3535 82.2834 91.3535 82.2834C91.3535 82.2834 86.6336 88.7918 85.0578 95.6826L88.0755 99.7661L84.7329 97.4032C84.6139 98.2059 84.5526 99.0144 84.5496 99.8238C84.5496 107.985 87.5955 114.601 91.3529 114.601C95.1102 114.601 98.1562 107.984 98.1562 99.8238C98.1562 97.2939 97.5019 94.647 96.5984 92.1983L93.7832 94.1895Z" fill="#CCCCCC"/>
<path d="M53.5031 52.1934C60.9017 52.1934 66.8994 46.9452 66.8994 40.4711C66.8994 33.997 60.9017 28.7488 53.5031 28.7488C46.1045 28.7488 40.1068 33.997 40.1068 40.4711C40.1068 46.9452 46.1045 52.1934 53.5031 52.1934Z" fill="#E6E6E6"/>
<path d="M72.0581 131.171H69.052L70.0541 79.7876H71.0559L72.0581 131.171Z" fill="#E6E6E6"/>
<path d="M74.563 47.4378L79.4156 40.8764C77.9765 37.3979 76.3144 33.9933 74.4371 30.6787L71.2993 32.8962L73.7838 29.5362C71.4148 25.4578 69.553 22.8882 69.553 22.8882C69.553 22.8882 59.8212 36.3075 56.5698 50.5158L62.7951 58.9369L55.9016 54.0648C55.6561 55.7199 55.5299 57.3869 55.5236 59.0559C55.5236 75.8832 61.8041 89.5243 69.5514 89.5243C77.2987 89.5243 83.5792 75.8832 83.5792 59.0559C83.5792 53.8394 82.2305 48.3817 80.37 43.333L74.563 47.4378Z" fill="#CCCCCC"/>
<path d="M120.065 138.577V173.508C120.065 180.593 113.763 186.336 105.989 186.337H36.6627C28.8887 186.337 22.5865 180.593 22.5862 173.508V141.983C34.6059 129.124 51.9844 121.439 70.5059 120.792C89.0274 120.145 107.001 126.595 120.065 138.577Z" fill="#E6E6E6"/>
<path opacity="0.2" d="M71.4015 173.035C82.7302 173.035 91.9139 164.998 91.9139 155.085C91.9139 145.172 82.7302 137.136 71.4015 137.136C60.0728 137.136 50.889 145.172 50.889 155.085C50.889 164.998 60.0728 173.035 71.4015 173.035Z" fill="#FFB8B8"/>
<path d="M71.4015 169.538C80.5233 169.538 87.9181 163.067 87.9181 155.085C87.9181 147.103 80.5233 140.633 71.4015 140.633C62.2796 140.633 54.8849 147.103 54.8849 155.085C54.8849 163.067 62.2796 169.538 71.4015 169.538Z" fill="#FFB8B8"/>
<path d="M69.4751 161.264L63.6542 154.716L67.0393 152.412L69.7951 155.513L79.1053 146.913L82.2188 149.494L69.4751 161.264Z" fill="white"/>
<path d="M159.174 132.606C165.089 132.606 169.883 128.41 169.883 123.235C169.883 118.059 165.089 113.864 159.174 113.864C153.259 113.864 148.465 118.059 148.465 123.235C148.465 128.41 153.259 132.606 159.174 132.606Z" fill="#2F2E41"/>
<path d="M163.514 175.843L164.339 179.248L179.744 178.084L178.527 173.058L163.514 175.843Z" fill="#FFB8B8"/>
<path d="M162.314 186.486L159.722 175.782L164.448 174.906L166.039 181.474C166.171 182.017 166.178 182.577 166.062 183.123C165.946 183.669 165.709 184.19 165.363 184.655C165.017 185.12 164.57 185.522 164.047 185.836C163.524 186.15 162.935 186.371 162.314 186.486Z" fill="#2F2E41"/>
<path d="M153.863 175.661L152.129 178.794L137.493 174.433L140.052 169.809L153.863 175.661Z" fill="#FFB8B8"/>
<path d="M149.869 180.602L153.213 174.558L157.561 176.401L152.112 186.249C150.959 185.76 150.074 184.891 149.654 183.832C149.233 182.773 149.311 181.611 149.869 180.602Z" fill="#2F2E41"/>
<path d="M125.025 169.472C125.526 169.554 126.042 169.538 126.535 169.427C127.029 169.315 127.488 169.11 127.882 168.827C128.275 168.543 128.592 168.187 128.811 167.784C129.03 167.382 129.146 166.942 129.15 166.496L153.286 147.024L147.292 142.962L125.439 163.391C124.583 163.435 123.774 163.752 123.166 164.283C122.559 164.813 122.195 165.521 122.144 166.271C122.093 167.02 122.358 167.76 122.89 168.35C123.421 168.941 124.181 169.34 125.026 169.472L125.025 169.472Z" fill="#FFB8B8"/>
<path d="M157.83 133.029C162.232 133.029 165.8 129.906 165.8 126.054C165.8 122.202 162.232 119.08 157.83 119.08C153.428 119.08 149.859 122.202 149.859 126.054C149.859 129.906 153.428 133.029 157.83 133.029Z" fill="#FFB8B8"/>
<path d="M164.983 167.052C159.392 167.052 152.658 166.022 148.504 161.805L148.41 161.711L148.508 161.617C148.54 161.587 151.595 158.531 148.544 153.081L144.348 154.21L140.171 149.386L142.485 143.312L151.954 136.639C153.31 135.688 154.962 135.115 156.695 134.994C159.831 134.729 162.886 133.967 165.711 132.747C167.004 132.197 168.428 131.925 169.865 131.952L170.052 131.956C170.489 131.967 170.919 132.055 171.316 132.216C171.712 132.376 172.068 132.606 172.36 132.89C172.653 133.174 172.877 133.508 173.017 133.87C173.158 134.232 173.214 134.616 173.18 134.997C172.538 142.275 171.405 159.857 174.735 165.911L174.821 166.067L174.629 166.11C171.463 166.733 168.229 167.049 164.984 167.052L164.983 167.052Z" fill="#FFB8B8"/>
<path d="M149.6 161.713C149.6 161.713 128.506 160.009 126.235 165.404C123.963 170.8 126.559 173.356 130.454 174.492C134.348 175.627 143.759 177.047 143.759 177.047L147.978 172.504L159.012 173.072C159.012 173.072 171.306 179.311 174.706 185.985C175.435 187.429 176.598 188.673 178.071 189.585C179.544 190.497 181.272 191.042 183.071 191.163C185.797 191.329 188.219 190.429 188.219 186.702C188.219 178.183 174.589 165.972 174.589 165.972L149.6 161.713Z" fill="#2F2E41"/>
<path d="M133.537 170.09C133.537 170.09 139.054 168.67 147.816 172.362L133.537 170.09Z" fill="#2F2E41"/>
<path d="M149.879 121.606C152.992 123.269 156.501 124.281 160.134 124.563L159.053 123.43C159.84 123.684 160.668 123.828 161.506 123.856C161.926 123.866 162.343 123.791 162.723 123.635C163.104 123.479 163.437 123.247 163.697 122.958C163.909 122.658 164.035 122.318 164.064 121.966C164.093 121.614 164.025 121.262 163.864 120.938C163.535 120.292 163.022 119.731 162.375 119.308C161.228 118.514 159.874 117.981 158.434 117.756C156.994 117.53 155.513 117.62 154.122 118.018C153.168 118.267 152.313 118.746 151.656 119.401C151.333 119.731 151.109 120.126 151.003 120.55C150.898 120.974 150.914 121.415 151.051 121.832" fill="#2F2E41"/>
<path d="M159.116 116.032C160.533 113.154 162.653 110.583 165.327 108.5C167.044 107.165 169.05 106.017 171.313 105.67C173.576 105.324 176.127 105.917 177.515 107.519C178.651 108.829 178.862 110.584 178.737 112.224C178.612 113.865 178.194 115.49 178.233 117.133C178.274 118.81 178.793 120.451 179.743 121.908C180.693 123.365 182.044 124.591 183.672 125.476C185.301 126.36 187.157 126.874 189.07 126.972C190.984 127.07 192.895 126.748 194.631 126.035C192.676 126.981 191.154 128.477 189.341 129.616C187.528 130.754 185.134 131.535 183.074 130.783C180.894 129.988 179.893 127.824 179.113 125.873L175.63 117.172C175.038 115.693 174.416 114.17 173.208 113.013C172 111.857 170.039 111.151 168.376 111.733C167.116 112.174 166.295 113.226 165.576 114.232C164.856 115.238 164.097 116.31 162.882 116.838C161.668 117.366 159.864 117.041 159.467 115.905" fill="#2F2E41"/>
<path d="M161.851 167.077C161.714 167.077 161.576 167.07 161.44 167.057C160.533 166.968 159.699 166.578 159.111 165.967C158.522 165.357 158.223 164.572 158.275 163.775C158.327 162.978 158.726 162.228 159.39 161.68C160.054 161.132 160.933 160.828 161.846 160.829C162.005 160.83 162.164 160.84 162.321 160.86L173.218 150.71L172.081 147.391L177.792 145.15L179.394 148.575C179.931 149.735 180.026 151.016 179.665 152.227C179.304 153.438 178.506 154.515 177.391 155.298L165.396 163.647C165.409 163.749 165.415 163.851 165.415 163.953C165.415 164.393 165.309 164.827 165.104 165.228C164.9 165.63 164.6 165.989 164.226 166.282C163.575 166.796 162.728 167.079 161.851 167.077Z" fill="#FFB8B8"/>
<path d="M170.37 133.316C170.748 133.169 171.156 133.09 171.569 133.085C171.982 133.079 172.393 133.147 172.776 133.283C173.158 133.42 173.506 133.623 173.796 133.88C174.087 134.138 174.316 134.443 174.468 134.78L180.106 147.23L171.344 152.342L170.37 133.316Z" fill="#FFB8B8"/>
</g>
<defs>
<clipPath id="clip0_55_634">
<rect width="221" height="195" fill="white"/>
</clipPath>
</defs>
</svg>
