<svg width="278" height="190" viewBox="0 0 278 190" fill="none" xmlns="http://www.w3.org/2000/svg">
<g clip-path="url(#clip0_55_542)">
<path d="M55.3897 190C85.9805 190 110.779 188.15 110.779 185.868C110.779 183.585 85.9805 181.735 55.3897 181.735C24.7988 181.735 0 183.585 0 185.868C0 188.15 24.7988 190 55.3897 190Z" fill="#E6E6E6"/>
<path d="M42.3389 42.1577C51.9783 38.1302 63.9845 40.682 75.7097 42.453C75.8188 40.3083 77.1414 37.698 75.756 36.2017C74.0729 34.3839 74.2278 32.4738 75.2406 30.5527C77.8306 25.6403 74.1199 20.4132 70.3732 16.0669C69.5288 15.0895 68.4615 14.3215 67.2582 13.8254C66.0548 13.3292 64.7493 13.1189 63.4477 13.2115L56.5073 13.6984C54.8184 13.8169 53.2067 14.4393 51.8877 15.4822C50.5688 16.5251 49.6055 17.9388 49.1268 19.5342C47.4696 21.7482 46.5826 23.9561 47.1411 26.1525C44.6588 27.8188 44.2418 29.8303 45.3572 32.0978C46.303 33.5256 46.293 34.9153 45.3142 36.2666C44.0287 37.9895 43.0442 39.9105 42.4009 41.9509L42.3389 42.1577Z" fill="#2F2E41"/>
<path d="M271.412 164.252H74.9481C73.201 164.252 71.5254 163.57 70.29 162.357C69.0546 161.143 68.3606 159.497 68.3606 157.781C139.579 149.65 209.459 149.65 278 157.781C278 159.497 277.306 161.143 276.071 162.357C274.835 163.57 273.16 164.252 271.412 164.252Z" fill="#2F2E41"/>
<path d="M278 158.161L68.3606 157.781L92.6571 117.622L92.7733 117.432V28.9258C92.7732 27.8516 92.9886 26.7878 93.407 25.7953C93.8255 24.8028 94.4389 23.901 95.2122 23.1413C95.9855 22.3817 96.9035 21.7792 97.9139 21.3681C98.9242 20.957 100.007 20.7455 101.101 20.7456H244.097C245.191 20.7455 246.274 20.957 247.284 21.3681C248.295 21.7792 249.213 22.3817 249.986 23.1413C250.759 23.901 251.373 24.8028 251.791 25.7953C252.209 26.7878 252.425 27.8516 252.425 28.9258V118.041L278 158.161Z" fill="#3F3D56"/>
<path d="M100.911 26.4553C100.192 26.4561 99.5023 26.7371 98.9937 27.2366C98.4852 27.7362 98.1992 28.4134 98.1984 29.1199V109.818C98.1992 110.525 98.4852 111.202 98.9938 111.702C99.5023 112.201 100.192 112.482 100.911 112.483H245.45C246.169 112.482 246.858 112.201 247.367 111.702C247.875 111.202 248.161 110.525 248.162 109.818V29.1199C248.161 28.4135 247.875 27.7362 247.367 27.2367C246.858 26.7371 246.169 26.4561 245.45 26.4553H100.911Z" fill="white"/>
<path d="M101.517 123.141C101.294 123.142 101.077 123.205 100.89 123.322C100.703 123.44 100.554 123.608 100.46 123.806L92.9739 139.793C92.8924 139.967 92.8567 140.159 92.8702 140.35C92.8837 140.541 92.9459 140.726 93.0511 140.887C93.1562 141.048 93.301 141.181 93.472 141.273C93.6431 141.365 93.8349 141.413 94.0299 141.413H251.467C251.665 141.413 251.86 141.363 252.033 141.268C252.206 141.173 252.352 141.037 252.456 140.871C252.56 140.705 252.619 140.517 252.628 140.322C252.637 140.128 252.595 139.934 252.506 139.76L244.369 123.773C244.273 123.583 244.125 123.423 243.941 123.311C243.757 123.2 243.545 123.141 243.329 123.141H101.517Z" fill="#2F2E41"/>
<path d="M172.599 25.1231C173.562 25.1231 174.343 24.3562 174.343 23.4102C174.343 22.4642 173.562 21.6973 172.599 21.6973C171.636 21.6973 170.855 22.4642 170.855 23.4102C170.855 24.3562 171.636 25.1231 172.599 25.1231Z" fill="white"/>
<path d="M157.124 144.458C156.869 144.458 156.62 144.541 156.418 144.694C156.215 144.847 156.069 145.061 156.002 145.303L154.124 152.155C154.078 152.324 154.071 152.501 154.106 152.673C154.141 152.845 154.215 153.007 154.324 153.146C154.432 153.285 154.572 153.398 154.732 153.476C154.892 153.553 155.068 153.594 155.246 153.594H190.96C191.145 153.594 191.328 153.55 191.493 153.467C191.658 153.383 191.8 153.262 191.907 153.114C192.014 152.966 192.084 152.794 192.111 152.614C192.137 152.434 192.119 152.25 192.058 152.078L189.644 145.226C189.565 145.002 189.417 144.808 189.22 144.67C189.023 144.532 188.787 144.458 188.545 144.458H157.124Z" fill="#2F2E41"/>
<path d="M252.425 116.099V117.622H92.6571L92.7773 117.432V116.099H252.425Z" fill="#2F2E41"/>
<path d="M247.969 53.2915C262.949 53.2915 275.094 41.3618 275.094 26.6457C275.094 11.9297 262.949 0 247.969 0C232.988 0 220.843 11.9297 220.843 26.6457C220.843 41.3618 232.988 53.2915 247.969 53.2915Z" fill="#FFB8B8"/>
<path d="M259.206 38.2558H236.731C236.32 38.2554 235.926 38.0949 235.635 37.8094C235.345 37.5239 235.181 37.1369 235.181 36.7332V23.4103C235.181 23.0066 235.345 22.6196 235.635 22.3341C235.926 22.0487 236.32 21.8881 236.731 21.8877H259.206C259.617 21.8881 260.011 22.0487 260.302 22.3341C260.592 22.6196 260.756 23.0066 260.756 23.4103V36.7332C260.756 37.1369 260.592 37.5239 260.302 37.8094C260.011 38.0949 259.617 38.2554 259.206 38.2558ZM236.731 23.4103V36.7332H259.207L259.206 23.4103L236.731 23.4103Z" fill="white"/>
<path d="M254.944 23.4101H240.993V17.3196C240.993 12.9083 243.927 9.70654 247.968 9.70654C252.01 9.70654 254.944 12.9083 254.944 17.3196L254.944 23.4101ZM242.543 21.8875H253.394V17.3196C253.394 13.7337 251.163 11.2292 247.968 11.2292C244.774 11.2292 242.543 13.7337 242.543 17.3196L242.543 21.8875Z" fill="white"/>
<path d="M247.968 31.2137C248.825 31.2137 249.518 30.532 249.518 29.6911C249.518 28.8502 248.825 28.1685 247.968 28.1685C247.112 28.1685 246.418 28.8502 246.418 29.6911C246.418 30.532 247.112 31.2137 247.968 31.2137Z" fill="white"/>
<path d="M229.033 85.1111H117.328C116.779 85.1105 116.254 84.8962 115.866 84.5152C115.478 84.1343 115.26 83.6178 115.259 83.079V55.8597C115.26 55.3209 115.478 54.8044 115.866 54.4235C116.254 54.0426 116.779 53.8283 117.328 53.8276H229.033C229.581 53.8283 230.107 54.0426 230.495 54.4235C230.882 54.8044 231.101 55.3209 231.101 55.8597V83.079C231.101 83.6178 230.882 84.1343 230.495 84.5152C230.107 84.8962 229.581 85.1105 229.033 85.1111ZM117.328 54.6405C116.999 54.6408 116.683 54.7694 116.451 54.998C116.218 55.2265 116.087 55.5364 116.087 55.8597V83.079C116.087 83.4023 116.218 83.7122 116.451 83.9408C116.683 84.1694 116.999 84.2979 117.328 84.2983H229.033C229.362 84.2979 229.677 84.1694 229.91 83.9408C230.143 83.7122 230.273 83.4023 230.274 83.079V55.8597C230.273 55.5364 230.143 55.2265 229.91 54.9979C229.677 54.7694 229.362 54.6408 229.033 54.6405L117.328 54.6405Z" fill="#E6E6E6"/>
<path d="M134.685 76.7024C139.338 76.7024 143.111 72.9964 143.111 68.4249C143.111 63.8534 139.338 60.1475 134.685 60.1475C130.031 60.1475 126.258 63.8534 126.258 68.4249C126.258 72.9964 130.031 76.7024 134.685 76.7024Z" fill="#E6E6E6"/>
<path d="M154.146 62.9065C153.961 62.9062 153.778 62.9417 153.607 63.0109C153.437 63.0801 153.282 63.1817 153.151 63.3098C153.02 63.4379 152.917 63.5901 152.846 63.7576C152.775 63.9251 152.739 64.1047 152.739 64.2861C152.739 64.4674 152.775 64.647 152.846 64.8145C152.917 64.982 153.02 65.1342 153.151 65.2623C153.282 65.3905 153.437 65.492 153.607 65.5612C153.778 65.6304 153.961 65.6659 154.146 65.6656H220.353C220.725 65.6656 221.083 65.5203 221.346 65.2616C221.609 65.0028 221.757 64.6519 221.757 64.2861C221.757 63.9202 221.609 63.5693 221.346 63.3106C221.083 63.0518 220.725 62.9065 220.353 62.9065H154.146Z" fill="#E6E6E6"/>
<path d="M154.146 71.1841C153.773 71.1841 153.416 71.3294 153.153 71.5881C152.889 71.8469 152.741 72.1978 152.741 72.5637C152.741 72.9295 152.889 73.2804 153.153 73.5392C153.416 73.7979 153.773 73.9432 154.146 73.9432H182.635C183.007 73.9432 183.364 73.7979 183.628 73.5392C183.891 73.2804 184.039 72.9295 184.039 72.5637C184.039 72.1978 183.891 71.8469 183.628 71.5881C183.364 71.3294 183.007 71.1841 182.635 71.1841H154.146Z" fill="#E6E6E6"/>
<path d="M92.3822 71.7421L71.7327 82.5263L71.4713 73.5395C78.2112 72.4342 84.6234 70.5099 90.5525 67.3771L92.7122 62.1357C92.9475 61.5646 93.33 61.0634 93.8221 60.6814C94.3141 60.2993 94.8989 60.0495 95.5189 59.9565C96.139 59.8635 96.773 59.9305 97.3587 60.1508C97.9444 60.3712 98.4618 60.7375 98.8599 61.2136C99.4424 61.9102 99.7335 62.7982 99.6744 63.6978C99.6153 64.5974 99.2102 65.4412 98.5414 66.0585L92.3822 71.7421Z" fill="#FFB8B8"/>
<path d="M41.9272 134.006C41.7766 133.463 41.7446 132.895 41.8334 132.34C41.9221 131.784 42.1297 131.253 42.4423 130.781L46.9784 123.943C48.0513 122.326 49.6976 121.157 51.5978 120.665C53.498 120.172 55.5168 120.391 57.2623 121.278C55.3559 124.466 55.6217 127.262 57.9207 129.692C54.3517 131.404 51.0532 133.613 48.1272 136.251C47.593 136.608 46.9796 136.836 46.338 136.913C45.6964 136.991 45.0451 136.917 44.4385 136.697C43.832 136.478 43.2876 136.119 42.8507 135.651C42.4139 135.182 42.0973 134.619 41.9272 134.006Z" fill="#2F2E41"/>
<path d="M93.3227 125.064C92.6363 126.188 91.6673 127.12 90.5089 127.77C89.3504 128.42 88.0413 128.767 86.7072 128.776L56.5723 129.001L55.2654 121.554L68.5961 117.703L57.3565 109.23L69.6416 95.1077L91.9552 115.537C93.2594 116.731 94.1068 118.329 94.3557 120.063C94.6046 121.797 94.2399 123.563 93.3227 125.064Z" fill="#2F2E41"/>
<path d="M51.8674 175.989H44.81C38.4734 133.322 32.0234 90.536 51.0832 74.5664L73.5624 78.1611L70.6872 96.905L58.1406 111.027L51.8674 175.989Z" fill="#2F2E41"/>
<path d="M58.0712 185.654C57.5187 185.802 56.9406 185.834 56.3748 185.746C55.8091 185.659 55.2686 185.455 54.7888 185.148L47.1259 184.137C45.4792 183.083 44.2898 181.466 43.7884 179.599C43.287 177.732 43.5092 175.749 44.4121 174.035C47.6573 175.907 50.504 175.646 52.9777 173.387C54.7256 176.854 57.6055 176.643 60.356 179.564C60.7201 180.088 60.9514 180.691 61.0305 181.321C61.1096 181.951 61.0343 182.591 60.8107 183.187C60.5872 183.783 60.222 184.318 59.7454 184.747C59.2689 185.176 58.6949 185.487 58.0712 185.654Z" fill="#2F2E41"/>
<path d="M68.5962 46.0655L55.5269 42.9843C57.6975 38.6198 57.8762 33.7633 56.8338 28.6054L65.7209 28.3486C65.9994 34.7627 66.8418 40.755 68.5962 46.0655Z" fill="#FFB8B8"/>
<path d="M72.188 85.8923C62.674 92.2608 55.9517 86.1102 50.8219 76.6207C51.5347 70.814 50.3805 63.865 48.2428 56.3144C47.2921 52.9841 47.6471 49.4247 49.2376 46.3388C50.828 43.253 53.5385 40.8651 56.8337 39.6465L68.0733 44.2683C77.617 51.91 79.4955 60.1875 75.9149 68.9178L72.188 85.8923Z" fill="#FFB8B8"/>
<path d="M44.81 52.4846L34.3545 57.8767L52.913 68.6609L55.4952 74.9179C55.6676 75.3355 55.7516 75.7833 55.742 76.2338C55.7325 76.6843 55.6296 77.1283 55.4397 77.5385C55.2498 77.9487 54.9768 78.3166 54.6375 78.6198C54.2981 78.923 53.8994 79.1551 53.4657 79.3021C52.9727 79.469 52.4471 79.5217 51.9299 79.4558C51.4128 79.3899 50.9182 79.2073 50.4849 78.9223C50.0516 78.6373 49.6913 78.2577 49.4323 77.8131C49.1733 77.3685 49.0225 76.871 48.9919 76.3596L48.7308 71.9988L25.1433 64.3525C24.3485 64.0949 23.6239 63.663 23.0243 63.0896C22.4246 62.5161 21.9657 61.8161 21.6822 61.0426C21.269 59.9152 21.248 58.6849 21.6224 57.5445C21.9969 56.404 22.7456 55.4177 23.7515 54.7398L42.7189 41.9573L44.81 52.4846Z" fill="#FFB8B8"/>
<path d="M55.2655 53.5118C50.9049 51.6346 46.9397 53.6738 41.9348 55.3091L41.1506 41.7006C46.1203 39.0986 50.8586 38.3971 55.2655 40.4168L55.2655 53.5118Z" fill="#FFB8B8"/>
<path d="M60.4817 35.0895C65.0901 35.0895 68.8259 31.4197 68.8259 26.8928C68.8259 22.3658 65.0901 18.696 60.4817 18.696C55.8733 18.696 52.1375 22.3658 52.1375 26.8928C52.1375 31.4197 55.8733 35.0895 60.4817 35.0895Z" fill="#FFB8B8"/>
<path d="M70.4641 25.8586C62.2026 26.6535 55.9074 25.3262 51.884 21.5471V18.5037H69.763L70.4641 25.8586Z" fill="#2F2E41"/>
</g>
<defs>
<clipPath id="clip0_55_542">
<rect width="278" height="190" fill="white"/>
</clipPath>
</defs>
</svg>
